<svg width="139" height="103" viewBox="0 0 139 103" fill="none" xmlns="http://www.w3.org/2000/svg">
<path d="M34.9744 22.3538V35.889C34.9744 36.5218 35.1033 36.9827 35.3611 37.2718C35.6189 37.5609 36.1072 37.7718 36.8259 37.9046L36.7205 38.1859C35.8455 38.0687 35.1853 38.0062 34.74 37.9984C34.2947 37.9905 33.7166 38.053 33.0056 38.1859L32.9353 38.0687C33.0916 37.8421 33.1697 37.428 33.1697 36.8265V24.5101C33.1697 23.4085 33.0369 22.6663 32.7712 22.2835C32.5134 21.9007 31.9587 21.7405 31.1072 21.803L31.0603 21.5804C32.3494 21.1976 33.572 21.0062 34.7283 21.0062C34.8923 21.4202 34.9744 21.8694 34.9744 22.3538ZM43.2009 21.5101L36.8962 27.9671V28.1546L43.6814 35.8655C44.6033 36.8968 45.5564 37.5765 46.5408 37.9046V38.1155C46.0017 38.0609 45.5955 38.0257 45.322 38.0101C45.0564 37.9944 44.7126 37.9984 44.2908 38.0218C43.8689 38.0452 43.49 38.1077 43.1541 38.2093L42.99 38.1155C43.0056 37.9437 42.908 37.7288 42.697 37.471L35.3376 28.8812V28.6351L41.6423 22.1312C41.8142 21.9515 41.6658 21.7991 41.197 21.6741C40.7908 21.5648 40.3572 21.5179 39.8962 21.5335L39.8259 21.2171C41.1541 21.0452 42.2712 21.014 43.1775 21.1234C43.2478 21.2249 43.2556 21.3538 43.2009 21.5101ZM56.2673 36.6741C56.2673 36.8069 56.2947 36.9319 56.3494 37.0491C56.4119 37.1585 56.4822 37.2523 56.5603 37.3304C56.6462 37.4007 56.7673 37.471 56.9236 37.5413C57.0798 37.6116 57.2166 37.6663 57.3337 37.7054C57.4509 37.7444 57.615 37.7952 57.8259 37.8577L57.7322 38.139C57.2322 38.0452 56.7361 37.9984 56.2439 37.9984C55.6267 37.9984 55.0173 38.0609 54.4158 38.1859L54.3455 38.0687C54.5095 37.8421 54.5916 37.428 54.5916 36.8265V36.053C54.2009 36.7796 53.5916 37.3655 52.7634 37.8109C51.9431 38.2562 51.1111 38.4788 50.2673 38.4788C49.3689 38.4788 48.6423 38.2484 48.0876 37.7874C47.5408 37.3187 47.2673 36.6273 47.2673 35.7132C47.2673 35.1194 47.3884 34.5921 47.6306 34.1312C47.8806 33.6624 48.2087 33.2679 48.615 32.9476C49.0291 32.6194 49.5564 32.3304 50.197 32.0804C50.8455 31.8304 51.5095 31.6273 52.1892 31.471C52.8767 31.3148 53.6775 31.1702 54.5916 31.0374V29.9593C54.5916 27.8109 53.7439 26.7366 52.0486 26.7366C51.5017 26.7366 50.8298 26.8734 50.033 27.1468C49.2439 27.4124 48.5798 27.764 48.0408 28.2015L47.5603 27.6507C48.24 27.1116 49.0447 26.6663 49.9744 26.3148C50.9119 25.9632 51.7869 25.7874 52.5994 25.7874C52.9587 25.7874 53.2986 25.8226 53.6189 25.8929C53.947 25.9554 54.2751 26.0765 54.6033 26.2562C54.9392 26.428 55.2244 26.6507 55.4587 26.9241C55.7009 27.1898 55.8962 27.5491 56.0447 28.0023C56.1931 28.4476 56.2673 28.9554 56.2673 29.5257V36.6741ZM50.8181 37.5882C51.4978 37.5882 52.2087 37.3655 52.9509 36.9202C53.6931 36.4671 54.24 35.9046 54.5916 35.2327V31.6585C52.5916 31.9476 51.1619 32.3929 50.3025 32.9944C49.4509 33.5882 49.0251 34.4554 49.0251 35.596C49.0251 36.2913 49.1736 36.7991 49.4705 37.1194C49.7673 37.4319 50.2166 37.5882 50.8181 37.5882ZM63.4275 34.764C63.4275 35.8265 63.5447 36.5609 63.7791 36.9671C64.0134 37.3655 64.3923 37.5648 64.9158 37.5648C65.4861 37.5648 66.1814 37.3499 67.0017 36.9202L67.365 37.4241C66.0759 38.1273 65.0212 38.4788 64.2009 38.4788C63.7634 38.4788 63.408 38.4398 63.1345 38.3616C62.8611 38.2835 62.6111 38.1312 62.3845 37.9046C62.158 37.678 61.9939 37.346 61.8923 36.9085C61.7986 36.4632 61.7517 35.889 61.7517 35.1859V27.2405L59.9939 27.346V26.596C60.6111 26.4632 61.197 26.3773 61.7517 26.3382V24.6741C62.4158 24.2991 62.9587 23.764 63.3806 23.0687L63.7439 23.2093C63.6111 23.5218 63.5251 23.8773 63.4861 24.2757C63.447 24.6663 63.4275 25.3304 63.4275 26.2679H67.4587V26.678C67.1306 26.8109 66.7986 26.9241 66.4626 27.0179C66.1267 27.1038 65.7791 27.1468 65.4197 27.1468H63.4275V34.764ZM78.1345 36.6741C78.1345 36.8069 78.1619 36.9319 78.2166 37.0491C78.2791 37.1585 78.3494 37.2523 78.4275 37.3304C78.5134 37.4007 78.6345 37.471 78.7908 37.5413C78.947 37.6116 79.0837 37.6663 79.2009 37.7054C79.3181 37.7444 79.4822 37.7952 79.6931 37.8577L79.5994 38.139C79.0994 38.0452 78.6033 37.9984 78.1111 37.9984C77.4939 37.9984 76.8845 38.0609 76.283 38.1859L76.2126 38.0687C76.3767 37.8421 76.4587 37.428 76.4587 36.8265V36.053C76.0681 36.7796 75.4587 37.3655 74.6306 37.8109C73.8103 38.2562 72.9783 38.4788 72.1345 38.4788C71.2361 38.4788 70.5095 38.2484 69.9548 37.7874C69.408 37.3187 69.1345 36.6273 69.1345 35.7132C69.1345 35.1194 69.2556 34.5921 69.4978 34.1312C69.7478 33.6624 70.0759 33.2679 70.4822 32.9476C70.8962 32.6194 71.4236 32.3304 72.0642 32.0804C72.7126 31.8304 73.3767 31.6273 74.0564 31.471C74.7439 31.3148 75.5447 31.1702 76.4587 31.0374V29.9593C76.4587 27.8109 75.6111 26.7366 73.9158 26.7366C73.3689 26.7366 72.697 26.8734 71.9001 27.1468C71.1111 27.4124 70.447 27.764 69.908 28.2015L69.4275 27.6507C70.1072 27.1116 70.9119 26.6663 71.8416 26.3148C72.7791 25.9632 73.6541 25.7874 74.4666 25.7874C74.8259 25.7874 75.1658 25.8226 75.4861 25.8929C75.8142 25.9554 76.1423 26.0765 76.4705 26.2562C76.8064 26.428 77.0916 26.6507 77.3259 26.9241C77.5681 27.1898 77.7634 27.5491 77.9119 28.0023C78.0603 28.4476 78.1345 28.9554 78.1345 29.5257V36.6741ZM72.6853 37.5882C73.365 37.5882 74.0759 37.3655 74.8181 36.9202C75.5603 36.4671 76.1072 35.9046 76.4587 35.2327V31.6585C74.4587 31.9476 73.0291 32.3929 72.1697 32.9944C71.3181 33.5882 70.8923 34.4554 70.8923 35.596C70.8923 36.2913 71.0408 36.7991 71.3376 37.1194C71.6345 37.4319 72.0837 37.5882 72.6853 37.5882ZM83.49 29.3148C83.49 28.7913 83.4626 28.3538 83.408 28.0023C83.3611 27.6507 83.2712 27.3694 83.1384 27.1585C83.0134 26.9476 82.8376 26.7991 82.6111 26.7132C82.3845 26.6273 82.1423 26.5843 81.8845 26.5843C81.6345 26.5843 81.4822 26.5882 81.4275 26.596L81.3806 26.3851C82.6541 26.0023 83.8376 25.8109 84.9314 25.8109C85.0955 26.2249 85.1775 26.6702 85.1775 27.1468V27.4866C85.6306 27.1819 86.0486 26.9163 86.4314 26.6898C86.8142 26.4632 87.1892 26.2718 87.5564 26.1155C87.9314 25.9593 88.3142 25.8421 88.7048 25.764C89.0955 25.6859 89.5251 25.6468 89.9939 25.6468C90.4158 25.6468 90.8337 25.7015 91.2478 25.8109C91.6697 25.9202 92.0447 26.1155 92.3728 26.3968C92.7087 26.678 92.9783 27.0609 93.1814 27.5452C93.3923 28.0296 93.4978 28.6429 93.4978 29.3851V36.6741C93.4978 36.8616 93.5408 37.0179 93.6267 37.1429C93.7205 37.2679 93.8376 37.3734 93.9783 37.4593C94.1267 37.5452 94.2947 37.6194 94.4822 37.6819C94.6697 37.7366 94.865 37.7952 95.0681 37.8577L94.9626 38.139C94.5251 38.0452 93.9431 37.9984 93.2166 37.9984C92.7712 37.9984 92.2517 38.0609 91.658 38.1859L91.5876 38.0687C91.7439 37.8421 91.822 37.428 91.822 36.8265V29.8187C91.822 29.1624 91.7595 28.6273 91.6345 28.2132C91.5095 27.7913 91.3376 27.4632 91.1189 27.2288C90.908 26.9866 90.658 26.8187 90.3689 26.7249C90.0876 26.6312 89.7869 26.5843 89.4666 26.5843C89.0759 26.5843 88.7087 26.6194 88.365 26.6898C88.0291 26.7601 87.6892 26.8694 87.3455 27.0179C87.0095 27.1585 86.6658 27.3382 86.3142 27.5569C85.9626 27.7679 85.5837 28.0179 85.1775 28.3069V36.3929C85.1775 36.6429 85.197 36.846 85.2361 37.0023C85.2751 37.1507 85.3572 37.2757 85.4822 37.3773C85.6072 37.4788 85.783 37.5687 86.0095 37.6468C86.2361 37.7249 86.533 37.8109 86.9001 37.9046L86.8064 38.1859C86.3533 38.1234 85.9666 38.0765 85.6462 38.0452C85.3337 38.014 85.0798 37.9984 84.8845 37.9984C84.4392 37.9984 83.9197 38.0609 83.3259 38.1859L83.2556 38.0687C83.4119 37.8421 83.49 37.428 83.49 36.8265V29.3148ZM106.236 36.6741C106.236 36.8069 106.263 36.9319 106.318 37.0491C106.381 37.1585 106.451 37.2523 106.529 37.3304C106.615 37.4007 106.736 37.471 106.892 37.5413C107.049 37.6116 107.185 37.6663 107.302 37.7054C107.42 37.7444 107.584 37.7952 107.795 37.8577L107.701 38.139C107.201 38.0452 106.705 37.9984 106.213 37.9984C105.595 37.9984 104.986 38.0609 104.385 38.1859L104.314 38.0687C104.478 37.8421 104.56 37.428 104.56 36.8265V36.053C104.17 36.7796 103.56 37.3655 102.732 37.8109C101.912 38.2562 101.08 38.4788 100.236 38.4788C99.3376 38.4788 98.6111 38.2484 98.0564 37.7874C97.5095 37.3187 97.2361 36.6273 97.2361 35.7132C97.2361 35.1194 97.3572 34.5921 97.5994 34.1312C97.8494 33.6624 98.1775 33.2679 98.5837 32.9476C98.9978 32.6194 99.5251 32.3304 100.166 32.0804C100.814 31.8304 101.478 31.6273 102.158 31.471C102.845 31.3148 103.646 31.1702 104.56 31.0374V29.9593C104.56 27.8109 103.713 26.7366 102.017 26.7366C101.47 26.7366 100.799 26.8734 100.002 27.1468C99.2126 27.4124 98.5486 27.764 98.0095 28.2015L97.5291 27.6507C98.2087 27.1116 99.0134 26.6663 99.9431 26.3148C100.881 25.9632 101.756 25.7874 102.568 25.7874C102.927 25.7874 103.267 25.8226 103.588 25.8929C103.916 25.9554 104.244 26.0765 104.572 26.2562C104.908 26.428 105.193 26.6507 105.427 26.9241C105.67 27.1898 105.865 27.5491 106.013 28.0023C106.162 28.4476 106.236 28.9554 106.236 29.5257V36.6741ZM100.787 37.5882C101.467 37.5882 102.177 37.3655 102.92 36.9202C103.662 36.4671 104.209 35.9046 104.56 35.2327V31.6585C102.56 31.9476 101.131 32.3929 100.271 32.9944C99.4197 33.5882 98.9939 34.4554 98.9939 35.596C98.9939 36.2913 99.1423 36.7991 99.4392 37.1194C99.7361 37.4319 100.185 37.5882 100.787 37.5882Z" fill="white"/>
<path d="M36.7734 76.4062C37.3464 76.6979 37.9115 76.8438 38.4688 76.8438C38.8073 76.8438 39.1198 76.7943 39.4062 76.6953C39.6979 76.5911 39.9479 76.4375 40.1562 76.2344C40.3698 76.0312 40.5365 75.7812 40.6562 75.4844C40.776 75.1823 40.8359 74.8333 40.8359 74.4375C40.8359 74.1406 40.8047 73.8828 40.7422 73.6641C40.6797 73.4401 40.5599 73.224 40.3828 73.0156C40.2057 72.8021 39.9583 72.5755 39.6406 72.3359C39.3229 72.0964 38.9062 71.8099 38.3906 71.4766C37.5677 70.9401 36.9661 70.4245 36.5859 69.9297C36.2109 69.4349 36.0234 68.9323 36.0234 68.4219C36.0234 67.9219 36.1276 67.4844 36.3359 67.1094C36.5443 66.7292 36.8177 66.4141 37.1562 66.1641C37.5 65.9089 37.8854 65.7188 38.3125 65.5938C38.7448 65.4635 39.1823 65.3984 39.625 65.3984C40.4219 65.3984 41.1354 65.5807 41.7656 65.9453C41.6198 66.7526 41.3646 67.5365 41 68.2969L40.7891 68.1875C40.8203 67.9896 40.8438 67.8021 40.8594 67.625C40.8802 67.4427 40.8906 67.2734 40.8906 67.1172C40.8906 66.9557 40.8828 66.8099 40.8672 66.6797C40.8516 66.5443 40.8307 66.4167 40.8047 66.2969C40.388 66.0521 39.9401 65.9297 39.4609 65.9297C39.1589 65.9297 38.8698 65.9766 38.5938 66.0703C38.3229 66.1589 38.0833 66.2917 37.875 66.4688C37.6667 66.6458 37.5 66.8646 37.375 67.125C37.25 67.3802 37.1875 67.6745 37.1875 68.0078C37.1875 68.2422 37.2292 68.4609 37.3125 68.6641C37.3958 68.8672 37.5234 69.0703 37.6953 69.2734C37.8724 69.4766 38.0911 69.6875 38.3516 69.9062C38.6172 70.125 38.9297 70.3672 39.2891 70.6328C39.5026 70.7891 39.7031 70.9323 39.8906 71.0625C40.0781 71.1875 40.2526 71.3073 40.4141 71.4219C40.5755 71.5365 40.724 71.6484 40.8594 71.7578C41 71.8672 41.1302 71.9844 41.25 72.1094C41.8281 72.7188 42.1172 73.4271 42.1172 74.2344C42.1172 74.776 42.0208 75.2422 41.8281 75.6328C41.6406 76.0234 41.3828 76.3438 41.0547 76.5938C40.7266 76.8438 40.3438 77.026 39.9062 77.1406C39.4688 77.2604 39.0052 77.3203 38.5156 77.3203C37.6354 77.3203 36.7344 77.1432 35.8125 76.7891C35.974 75.9505 36.2292 75.1667 36.5781 74.4375L36.7891 74.5547C36.7266 74.8464 36.6953 75.2031 36.6953 75.625C36.6953 76.0469 36.7214 76.3073 36.7734 76.4062ZM51.5781 74.8203C51.5781 75.1693 51.5938 75.4609 51.625 75.6953C51.6615 75.9245 51.7214 76.1094 51.8047 76.25C51.8932 76.3906 52.013 76.4922 52.1641 76.5547C52.3151 76.612 52.474 76.6406 52.6406 76.6406C52.8073 76.6406 52.9115 76.638 52.9531 76.6328L52.9922 76.7734C52.1328 77.0286 51.3411 77.1562 50.6172 77.1562C50.513 76.875 50.4609 76.5781 50.4609 76.2656V75.8984C50.1849 76.1432 49.9271 76.3542 49.6875 76.5312C49.4531 76.7083 49.2214 76.8568 48.9922 76.9766C48.763 77.0911 48.5286 77.1771 48.2891 77.2344C48.0495 77.2917 47.7917 77.3203 47.5156 77.3203C47.2031 77.3203 46.8906 77.2839 46.5781 77.2109C46.2708 77.138 45.9922 77.0078 45.7422 76.8203C45.4922 76.6328 45.2891 76.3776 45.1328 76.0547C44.9818 75.7318 44.9062 75.3203 44.9062 74.8203V69.9922C44.9062 69.7839 44.8177 69.625 44.6406 69.5156C44.4688 69.4062 44.2109 69.3047 43.8672 69.2109L43.9297 69.0156C44.2318 69.0781 44.6224 69.1094 45.1016 69.1094C45.3984 69.1094 45.7448 69.0677 46.1406 68.9844L46.1875 69.0625C46.0833 69.224 46.0312 69.5026 46.0312 69.8984V74.5391C46.0312 74.9714 46.0807 75.3281 46.1797 75.6094C46.2786 75.8854 46.4115 76.1042 46.5781 76.2656C46.7448 76.4271 46.9401 76.5391 47.1641 76.6016C47.388 76.6589 47.625 76.6875 47.875 76.6875C48.1094 76.6875 48.3255 76.6641 48.5234 76.6172C48.7266 76.5651 48.9297 76.487 49.1328 76.3828C49.3359 76.2734 49.5443 76.1354 49.7578 75.9688C49.9714 75.7969 50.2057 75.5911 50.4609 75.3516V70.1875C50.4609 70.026 50.4453 69.8958 50.4141 69.7969C50.388 69.6927 50.3333 69.6068 50.25 69.5391C50.1719 69.4661 50.0573 69.4036 49.9062 69.3516C49.7552 69.2995 49.5573 69.2422 49.3125 69.1797L49.375 68.9844C49.6719 69.026 49.9271 69.0573 50.1406 69.0781C50.3542 69.099 50.526 69.1094 50.6562 69.1094C50.9531 69.1094 51.2995 69.0677 51.6953 68.9844L51.7422 69.0625C51.6328 69.2188 51.5781 69.4974 51.5781 69.8984V74.8203ZM59.8984 75.1797C59.8984 75.5547 59.8229 75.8776 59.6719 76.1484C59.5208 76.4193 59.3177 76.6432 59.0625 76.8203C58.8125 76.9922 58.5182 77.1172 58.1797 77.1953C57.8464 77.2786 57.4948 77.3203 57.125 77.3203C56.2292 77.3203 55.388 77.1328 54.6016 76.7578C54.7005 76.4141 54.7995 76.0964 54.8984 75.8047C54.9974 75.5078 55.099 75.2344 55.2031 74.9844L55.4297 75.0625C55.3828 75.2917 55.3594 75.513 55.3594 75.7266C55.3594 75.9349 55.3672 76.125 55.3828 76.2969C55.5443 76.3802 55.6953 76.4531 55.8359 76.5156C55.9766 76.5729 56.1172 76.6224 56.2578 76.6641C56.3984 76.7005 56.5495 76.7292 56.7109 76.75C56.8724 76.7656 57.0599 76.7734 57.2734 76.7734C57.5911 76.7734 57.8542 76.7526 58.0625 76.7109C58.2708 76.6693 58.4323 76.599 58.5469 76.5C58.6667 76.3958 58.75 76.2604 58.7969 76.0938C58.8438 75.9219 58.8672 75.7109 58.8672 75.4609C58.8672 75.2682 58.8333 75.0885 58.7656 74.9219C58.7031 74.75 58.5911 74.5807 58.4297 74.4141C58.2734 74.2474 58.0625 74.0755 57.7969 73.8984C57.5365 73.7161 57.2109 73.5182 56.8203 73.3047C56.1901 72.9297 55.7135 72.5573 55.3906 72.1875C55.0677 71.8125 54.9062 71.4115 54.9062 70.9844C54.9062 70.6458 54.9766 70.3464 55.1172 70.0859C55.2578 69.8203 55.4479 69.599 55.6875 69.4219C55.9323 69.2396 56.2161 69.1042 56.5391 69.0156C56.862 68.9219 57.2031 68.875 57.5625 68.875C57.7448 68.875 57.9349 68.888 58.1328 68.9141C58.3359 68.9401 58.5312 68.9792 58.7188 69.0312C58.9062 69.0781 59.0807 69.138 59.2422 69.2109C59.4089 69.2786 59.5521 69.3568 59.6719 69.4453C59.5052 70.1276 59.3021 70.7266 59.0625 71.2422L58.8359 71.1562C58.8464 71.0052 58.8542 70.8203 58.8594 70.6016C58.8646 70.3776 58.8672 70.1146 58.8672 69.8125C58.5286 69.5469 58.0599 69.4141 57.4609 69.4141C57.1641 69.4141 56.9115 69.4323 56.7031 69.4688C56.5 69.5052 56.3359 69.5677 56.2109 69.6562C56.0859 69.7448 55.9948 69.8672 55.9375 70.0234C55.8854 70.1745 55.8594 70.3672 55.8594 70.6016C55.8594 70.7734 55.8828 70.9349 55.9297 71.0859C55.9766 71.2318 56.0599 71.3776 56.1797 71.5234C56.2995 71.6641 56.4609 71.8099 56.6641 71.9609C56.8724 72.1068 57.138 72.2656 57.4609 72.4375C57.9661 72.7135 58.375 72.9557 58.6875 73.1641C59.0052 73.3724 59.2526 73.5781 59.4297 73.7812C59.612 73.9792 59.7344 74.1875 59.7969 74.4062C59.8646 74.625 59.8984 74.8828 59.8984 75.1797ZM68.1406 71.5469C68.1406 71.1094 68.099 70.7526 68.0156 70.4766C67.9323 70.1953 67.8177 69.9766 67.6719 69.8203C67.5312 69.6589 67.3646 69.5469 67.1719 69.4844C66.9844 69.4219 66.7839 69.3906 66.5703 69.3906C66.3099 69.3906 66.0651 69.4141 65.8359 69.4609C65.612 69.5078 65.3854 69.5807 65.1562 69.6797C64.9323 69.7734 64.7031 69.8932 64.4688 70.0391C64.2344 70.1797 63.9818 70.3464 63.7109 70.5391V75.9297C63.7109 76.0964 63.724 76.2318 63.75 76.3359C63.776 76.4349 63.8307 76.5182 63.9141 76.5859C63.9974 76.6536 64.1146 76.7135 64.2656 76.7656C64.4167 76.8177 64.6146 76.875 64.8594 76.9375L64.7969 77.125C64.4948 77.0833 64.237 77.0521 64.0234 77.0312C63.8151 77.0104 63.6042 77 63.3906 77C63.1771 77 62.8724 77.0417 62.4766 77.125L62.4297 77.0469C62.5339 76.8958 62.5859 76.6198 62.5859 76.2188V66.8594C62.5859 66.5104 62.5677 66.2188 62.5312 65.9844C62.5 65.75 62.4401 65.5625 62.3516 65.4219C62.2682 65.2812 62.151 65.1823 62 65.125C61.849 65.0677 61.6875 65.0391 61.5156 65.0391C61.349 65.0391 61.2474 65.0417 61.2109 65.0469L61.1797 64.9062C62.0286 64.651 62.8177 64.5234 63.5469 64.5234C63.6562 64.7995 63.7109 65.0964 63.7109 65.4141V69.9922C64.0703 69.7474 64.3958 69.5469 64.6875 69.3906C64.9844 69.2292 65.2604 69.1016 65.5156 69.0078C65.776 68.9141 66.0208 68.849 66.25 68.8125C66.4844 68.776 66.7214 68.7578 66.9609 68.7578C67.2891 68.7578 67.5885 68.8021 67.8594 68.8906C68.1354 68.974 68.3724 69.1146 68.5703 69.3125C68.7682 69.5052 68.9271 69.7604 69.0469 70.0781C69.1667 70.3958 69.237 70.7891 69.2578 71.2578V76.1172C69.2578 76.2422 69.2865 76.3464 69.3438 76.4297C69.4062 76.513 69.4844 76.5833 69.5781 76.6406C69.6771 76.6979 69.7891 76.7474 69.9141 76.7891C70.0391 76.8255 70.1693 76.8646 70.3047 76.9062L70.2344 77.0938C69.9427 77.0312 69.6016 77 69.2109 77C68.8203 77 68.4271 77.0417 68.0312 77.125L67.9844 77.0469C68.0885 76.8958 68.1406 76.6198 68.1406 76.2188V71.5469ZM72.8359 71.2109C72.8359 70.4714 72.7474 69.9766 72.5703 69.7266C72.3984 69.4714 72.0286 69.362 71.4609 69.3984L71.4297 69.2578C72.2891 69.0026 73.0781 68.875 73.7969 68.875C73.9062 69.1458 73.9609 69.4427 73.9609 69.7656V75.5938C73.9609 76.0052 74.0573 76.3099 74.25 76.5078C74.4427 76.7057 74.7839 76.849 75.2734 76.9375L75.2109 77.125C74.612 77.0417 74.1484 77 73.8203 77C73.4974 77 73.1328 77.0417 72.7266 77.125L72.6797 77.0469C72.7839 76.8958 72.8359 76.6198 72.8359 76.2188V71.2109ZM72.0391 65.9766C72.5339 65.6901 73.0938 65.4505 73.7188 65.2578C73.7188 65.6901 73.7891 66.1172 73.9297 66.5391L73.8281 66.6797C73.3333 66.7109 72.8177 66.849 72.2812 67.0938C72.151 66.7344 72.0703 66.362 72.0391 65.9766ZM82.7578 70.2188C83.2161 69.75 83.6771 69.4089 84.1406 69.1953C84.6042 68.9818 85.1146 68.875 85.6719 68.875C86.1406 68.875 86.5703 68.9844 86.9609 69.2031C87.3568 69.4167 87.6823 69.7005 87.9375 70.0547C88.1927 70.4089 88.3906 70.8099 88.5312 71.2578C88.6719 71.7005 88.7422 72.1589 88.7422 72.6328C88.7422 74.0286 88.3724 75.1328 87.6328 75.9453C86.8984 76.7526 85.8333 77.1562 84.4375 77.1562C83.8802 77.1562 83.3359 77.1094 82.8047 77.0156H82.7891C82.2734 77.0156 81.8568 77.0703 81.5391 77.1797L81.4766 77.0469C81.5443 76.9479 81.5859 76.8385 81.6016 76.7188C81.6224 76.5938 81.6328 76.3724 81.6328 76.0547V66.8594C81.6328 66.1719 81.5573 65.6979 81.4062 65.4375C81.2604 65.1771 80.9531 65.0469 80.4844 65.0469H80.2578L80.2266 64.9062C81.0859 64.651 81.875 64.5234 82.5938 64.5234C82.7031 64.7943 82.7578 65.0911 82.7578 65.4141V70.2188ZM82.7578 70.8438V76.1016C83.0078 76.237 83.3385 76.349 83.75 76.4375C84.1667 76.526 84.5833 76.5703 85 76.5703C85.4062 76.5703 85.7578 76.5156 86.0547 76.4062C86.3568 76.2917 86.599 76.1406 86.7812 75.9531C86.9635 75.7604 87.1094 75.5104 87.2188 75.2031C87.3333 74.8958 87.4089 74.5729 87.4453 74.2344C87.487 73.8958 87.5078 73.5 87.5078 73.0469C87.5078 71.8594 87.3073 70.9609 86.9062 70.3516C86.5052 69.737 85.974 69.4297 85.3125 69.4297C84.901 69.4297 84.4714 69.5521 84.0234 69.7969C83.5807 70.0365 83.1589 70.3854 82.7578 70.8438ZM96.2656 76.1172C96.2656 76.2057 96.2839 76.2891 96.3203 76.3672C96.362 76.4401 96.4089 76.5026 96.4609 76.5547C96.5182 76.6016 96.599 76.6484 96.7031 76.6953C96.8073 76.7422 96.8984 76.7786 96.9766 76.8047C97.0547 76.8307 97.1641 76.8646 97.3047 76.9062L97.2422 77.0938C96.9089 77.0312 96.5781 77 96.25 77C95.8385 77 95.4323 77.0417 95.0312 77.125L94.9844 77.0469C95.0938 76.8958 95.1484 76.6198 95.1484 76.2188V75.7031C94.888 76.1875 94.4818 76.5781 93.9297 76.875C93.3828 77.1719 92.8281 77.3203 92.2656 77.3203C91.6667 77.3203 91.1823 77.1667 90.8125 76.8594C90.4479 76.5469 90.2656 76.0859 90.2656 75.4766C90.2656 75.0807 90.3464 74.7292 90.5078 74.4219C90.6745 74.1094 90.8932 73.8464 91.1641 73.6328C91.4401 73.4141 91.7917 73.2214 92.2188 73.0547C92.651 72.888 93.0938 72.7526 93.5469 72.6484C94.0052 72.5443 94.5391 72.4479 95.1484 72.3594V71.6406C95.1484 70.2083 94.5833 69.4922 93.4531 69.4922C93.0885 69.4922 92.6406 69.5833 92.1094 69.7656C91.5833 69.9427 91.1406 70.1771 90.7812 70.4688L90.4609 70.1016C90.9141 69.7422 91.4505 69.4453 92.0703 69.2109C92.6953 68.9766 93.2786 68.8594 93.8203 68.8594C94.0599 68.8594 94.2865 68.8828 94.5 68.9297C94.7188 68.9714 94.9375 69.0521 95.1562 69.1719C95.3802 69.2865 95.5703 69.4349 95.7266 69.6172C95.888 69.7943 96.0182 70.0339 96.1172 70.3359C96.2161 70.6328 96.2656 70.9714 96.2656 71.3516V76.1172ZM92.6328 76.7266C93.0859 76.7266 93.5599 76.5781 94.0547 76.2812C94.5495 75.9792 94.9141 75.6042 95.1484 75.1562V72.7734C93.8151 72.9661 92.862 73.263 92.2891 73.6641C91.7214 74.0599 91.4375 74.638 91.4375 75.3984C91.4375 75.862 91.5365 76.2005 91.7344 76.4141C91.9323 76.6224 92.2318 76.7266 92.6328 76.7266ZM99.8359 71.2109C99.8359 70.862 99.8177 70.5703 99.7812 70.3359C99.75 70.1016 99.6901 69.9141 99.6016 69.7734C99.5182 69.6328 99.401 69.5339 99.25 69.4766C99.099 69.4193 98.8359 69.3932 98.4609 69.3984L98.4297 69.2578C99.2786 69.0026 100.068 68.875 100.797 68.875C100.906 69.151 100.961 69.4479 100.961 69.7656V70.7266L100.992 70.7578C101.211 70.4557 101.419 70.1875 101.617 69.9531C101.82 69.7188 102.026 69.5234 102.234 69.3672C102.443 69.2109 102.661 69.0938 102.891 69.0156C103.12 68.9323 103.375 68.8906 103.656 68.8906C103.833 68.8906 104.029 68.9062 104.242 68.9375L103.789 70.8438L103.5 70.7578C103.5 70.6797 103.495 70.5729 103.484 70.4375C103.474 70.3021 103.458 70.1693 103.438 70.0391C103.422 69.9036 103.398 69.7891 103.367 69.6953C103.341 69.5964 103.31 69.5469 103.273 69.5469C103.122 69.5469 102.969 69.5807 102.812 69.6484C102.661 69.7109 102.495 69.8151 102.312 69.9609C102.13 70.1068 101.93 70.2969 101.711 70.5312C101.492 70.7656 101.242 71.0495 100.961 71.3828V75.9297C100.961 76.0964 100.974 76.2318 101 76.3359C101.026 76.4349 101.081 76.5182 101.164 76.5859C101.247 76.6536 101.365 76.7135 101.516 76.7656C101.667 76.8177 101.865 76.875 102.109 76.9375L102.047 77.125C101.745 77.0833 101.487 77.0521 101.273 77.0312C101.065 77.0104 100.896 77 100.766 77C100.469 77 100.122 77.0417 99.7266 77.125L99.6797 77.0469C99.7839 76.8958 99.8359 76.6198 99.8359 76.2188V71.2109Z" fill="white"/>
<path d="M13.4154 50.078C14.2304 52.3161 16.8966 53.4376 21.2675 53.7321C39.3214 54.9479 69.8596 56.3767 90.8012 55.1371L89.5078 50.2486C68.4206 50.8808 38.3267 50.6032 13.4155 50.0782L13.4154 50.078ZM93.9948 55.143L98.2852 55.1507L96.9163 49.9763C95.5036 50.0389 94.089 50.0951 92.6724 50.1451L93.9948 55.143ZM102.859 61.7136L106.05 61.707L101.188 43.3328L97.9978 43.3393L102.859 61.7136ZM107.528 55.0734L122.687 55.0425C123.716 53.6636 123.13 51.2062 121.298 49.7926L106.139 49.8236L106.639 51.7114C106.628 50.9081 107.02 50.3706 107.618 50.3683C108.401 50.3668 109.275 51.2698 109.57 52.3854C109.275 51.2699 109.671 50.364 110.454 50.3625C111.237 50.361 112.111 51.2639 112.406 52.3797C112.111 51.2638 112.506 50.3583 113.289 50.3569C114.073 50.3551 114.947 51.2582 115.242 52.3739C114.947 51.2582 115.342 50.3527 116.125 50.3509C116.909 50.3495 117.783 51.2524 118.078 52.3682C117.783 51.2524 118.178 50.3467 118.961 50.3451C119.745 50.3437 120.619 51.2465 120.914 52.3624C121.209 53.4779 120.813 54.3837 120.03 54.3852C119.247 54.3866 118.373 53.4835 118.078 52.368C118.373 53.4835 117.977 54.3891 117.195 54.3908C116.411 54.3924 115.537 53.4895 115.242 52.3736C115.537 53.4896 115.142 54.395 114.359 54.3966C113.575 54.3981 112.701 53.4952 112.406 52.3795C112.701 53.4952 112.306 54.4008 111.523 54.4025C110.739 54.404 109.865 53.501 109.57 52.3853C109.865 53.501 109.47 54.4066 108.687 54.4083C108.088 54.4087 107.413 53.874 106.999 53.0723L107.528 55.0734Z" fill="#87BB4B"/>
</svg>
